<svg xmlns="http://www.w3.org/2000/svg" width="413" height="171" viewBox="0 0 411.82 169.32"><g fill="#000000"><path d="M205.53 0c-6.12 26-22.69 36.72-49.47 36.72H57.63c-22.7 0-48.2 6.12-55.85 30.34A49.23 49.23 0 010 54.57v-3.83C0 22.44 26.77 0 50.49 0zm.77 119.34c0 29.33-26.78 50-50.75 50H50.49c-21.42 0-45.39-15.3-49.73-36.72H140c14.79 0 14-13.77 14-13.77v-.51c0-4.08-.51-13.26-14-13.26H50.49c-12.75 0-27.54-5.61-36.21-16.07a24.1 24.1 0 01-3.32-12c0-20.66 24-29.07 41.57-29.07a11.2 11.2 0 00-.26 2.8v3.83c0 3.57.26 13.77 13.77 13.77h89.51c29.07 0 50.75 24.48 50.75 51zM226.69 87.97V0h52v121.38h-13.5c-22.44 0-35.19-11.22-38.5-33.41zm185.13 44.63c-1.53 15.81-16.32 36.72-42.33 36.72h-142.8v-52.78c11 13 27 15.81 38.5 16.06z"/></g></svg>